# xmcd
#
# Track frame offsets: 
#        150
#        23077
#        41452
#        63377
#        87522
#        126324
#        153739
#        183799
#        203853
#        217438
#        234913
#        250255
#        268051
#        284882
#
# Disc length: 4084 seconds
#
# Revision: 0
# Processed by: cddbd v1.5.1PL0 Copyright (c) Steve Scherf et al.
# Submitted via: ExactAudioCopy v0.95b2
#
DISCID=d80ff20e
DTITLE=Janis Joplin - good girls to heaven, bad ones to everywhere
DYEAR=1900
DGENRE=Blues
TTITLE0=Instrumental
TTITLE1=Maybe
TTITLE2=Summertime
TTITLE3=Try (just a little bit harder)
TTITLE4=Can't turn You loose
TTITLE5=Combination of the two
TTITLE6=Ball and chain
TTITLE7=Piece of my heart
TTITLE8=Trouble in my mind
TTITLE9=Long black train
TTITLE10=Kansas city blues
TTITLE11=Hesitation blues
TTITLE12=Nobody knows you when you are down and out
TTITLE13=Daddy, daddy, daddy
EXTD=
EXTT0=
EXTT1=
EXTT2=
EXTT3=
EXTT4=
EXTT5=
EXTT6=
EXTT7=
EXTT8=
EXTT9=
EXTT10=
EXTT11=
EXTT12=
EXTT13=
PLAYORDER=
